<svg xmlns="http://www.w3.org/2000/svg" xmlns:xlink="http://www.w3.org/1999/xlink" viewBox="0 0 841.53 80.51">
  <defs>
    <style>
      .cls-1 {
        isolation: isolate;
      }

      .cls-2 {
        fill: #fff;
      }

      .cls-3, .cls-4, .cls-5 {
        fill-rule: evenodd;
      }

      .cls-3 {
        fill: url(#未命名的渐变_31);
      }

      .cls-4 {
        fill: url(#未命名的渐变_31-2);
      }

      .cls-5 {
        fill: #26f3f4;
      }
    </style>
    <linearGradient id="未命名的渐变_31" data-name="未命名的渐变 31" x1="108.66" y1="88.6" x2="108.66" y2="32.41" gradientUnits="userSpaceOnUse">
      <stop offset="0" stop-color="#bababa"/>
      <stop offset="1" stop-color="#fff"/>
    </linearGradient>
    <linearGradient id="未命名的渐变_31-2" x1="108.84" y1="100.76" x2="108.84" y2="20.25" xlink:href="#未命名的渐变_31"/>
  </defs>
  <g id="fusionist_拷贝" data-name="fusionist 拷贝" class="cls-1">
    <g id="fusionist_拷贝-2" data-name="fusionist 拷贝">
      <path class="cls-2" d="M197.8,52.79V85.42h8.72V65.71h30.06V57.44H206.52V52.72c0-4.65,2.36-8.42,10.26-8.42h20.1V35.59H216.19C203,35.59,197.8,42.82,197.8,52.79ZM319.08,68.88c0,5-2.58,7.83-8.2,7.83H302c-5.76,0-8.27-2.88-8.27-7.83V35.59h-8.87v34c0,10.48,5.47,15.87,16.11,15.87h10.49c10.63,0,16.17-5.39,16.17-15.87v-34h-8.57Zm83.76-12.77H391.17c-5.83,0-7.38-2.88-7.38-5.9,0-3.47,2-5.91,6.5-5.91h25.55V35.59H390.58c-11.08,0-15.51,6-15.51,14.32,0,6.94,3.1,14.4,16.4,14.4h11.59c6.14,0,7.83,3,7.83,6.2,0,3.61-2.14,6.2-6.87,6.2H376v8.71h27.77c11.37,0,15.88-6.2,15.88-14.62C419.61,63.64,416.43,56.11,402.84,56.11Zm64.48,29.31H476V35.59h-8.72Zm86.27-49.83H546.8c-14.48,0-22.53,8.27-22.53,25s8,24.81,22.53,24.81h6.79c14.56,0,22.53-8.12,22.53-24.81S568.07,35.59,553.59,35.59Zm0,41.12H546.8C537.12,76.71,533,72,533,60.61S537.2,44.3,546.8,44.3h6.79c9.61,0,13.74,4.87,13.74,16.24S563.2,76.71,553.59,76.71Zm115-1.7a2.68,2.68,0,0,1-3,2.81,3.37,3.37,0,0,1-3.17-2.07L647.91,43.93c-2.06-5.68-5.17-9.23-12.11-9.23-7.76,0-11.45,4.36-11.45,10.86V85.42h8.72V46a2.69,2.69,0,0,1,3-2.88,3.07,3.07,0,0,1,3.1,2.14l14.55,31.82c2.07,5.68,5.24,9.23,12.19,9.23,7.68,0,11.45-4.36,11.45-10.93V35.59H668.6Zm58.79,10.41h8.71V35.59h-8.71Zm84.28-29.31H800c-5.84,0-7.39-2.88-7.39-5.9,0-3.47,2-5.91,6.5-5.91h25.56V35.59H799.4c-11.08,0-15.51,6-15.51,14.32,0,6.94,3.1,14.4,16.4,14.4h11.6c6.13,0,7.83,3,7.83,6.2,0,3.61-2.14,6.2-6.87,6.2H784.78v8.71h27.77c11.38,0,15.88-6.2,15.88-14.62C828.43,63.64,825.26,56.11,811.67,56.11Zm60.56-20.52V44.3h14.55V85.42h8.79V44.3h14.55V35.59Z" transform="translate(-68.59 -20.25)"/>
    </g>
    <path class="cls-3" d="M136.72,60.5a28.08,28.08,0,0,1-28.06,28.1s0-4.4,0-8.48A19.62,19.62,0,1,0,89,60.5H80.59a28.07,28.07,0,1,1,56.13,0Z" transform="translate(-68.59 -20.25)"/>
    <path class="cls-4" d="M149.09,60.5a40.25,40.25,0,1,1-40.25-40.25c0,4.5,0,7.64,0,7.64A32.62,32.62,0,1,0,141.45,60.5C145.43,60.5,149.09,60.43,149.09,60.5Z" transform="translate(-68.59 -20.25)"/>
    <path id="_1" data-name="1" class="cls-5" d="M108.81,52.38a8.18,8.18,0,1,1-8.17,8.17A8.17,8.17,0,0,1,108.81,52.38Z" transform="translate(-68.59 -20.25)"/>
  </g>
</svg>
