<svg xmlns="http://www.w3.org/2000/svg" xmlns:xlink="http://www.w3.org/1999/xlink" viewBox="0 0 972.8 972.8">
  <defs>
    <style>
      .cls-1 {
        fill: #1a1a1a;
      }

      .cls-2, .cls-3, .cls-4 {
        fill-rule: evenodd;
      }

      .cls-2 {
        fill: url(#未命名的渐变_31);
      }

      .cls-3 {
        fill: url(#未命名的渐变_31-2);
      }

      .cls-4 {
        fill: #26f3f4;
      }
    </style>
    <linearGradient id="未命名的渐变_31" data-name="未命名的渐变 31" x1="510.02" y1="820.85" x2="510.02" y2="203.16" gradientUnits="userSpaceOnUse">
      <stop offset="0" stop-color="#bababa"/>
      <stop offset="1" stop-color="#fff"/>
    </linearGradient>
    <linearGradient id="未命名的渐变_31-2" x1="512.04" y1="954.6" x2="512.04" y2="69.41" xlink:href="#未命名的渐变_31"/>
  </defs>
  <g id="图层_1" data-name="图层 1">
    <circle class="cls-1" cx="486.4" cy="486.4" r="486.4"/>
  </g>
  <g id="图层_2" data-name="图层 2">
    <path class="cls-2" d="M818.58,512c0,170.58-138.15,308.85-308.56,308.85.16,0,0-48.36-.24-93.18,119.08,0,215.61-96.55,215.61-215.67S628.86,296.34,509.78,296.34,294.17,392.89,294.17,512H201.45c0-170.57,138.15-308.84,308.57-308.84S818.58,341.43,818.58,512Z" transform="translate(-24.87 -25.08)"/>
    <path class="cls-3" d="M954.54,512c0,244.44-198.11,442.6-442.5,442.6S69.55,756.44,69.55,512,267.66,69.41,512,69.41c.52,49.48.15,84,0,84-198,0-358.5,160.55-358.5,358.58s160.5,358.58,358.5,358.58S870.57,710,870.57,512C914.32,512,954.54,511.2,954.54,512Z" transform="translate(-24.87 -25.08)"/>
    <path id="_1" data-name="1" class="cls-4" d="M511.74,422.7a89.85,89.85,0,1,1-89.85,89.85A89.85,89.85,0,0,1,511.74,422.7Z" transform="translate(-24.87 -25.08)"/>
  </g>
</svg>
