<?xml version="1.0" encoding="UTF-8"?>
<svg xmlns="http://www.w3.org/2000/svg" version="1.1" xmlns:xlink="http://www.w3.org/1999/xlink" viewBox="0 0 1024 1024">
  <defs>
    <style>
      .cls-1 {
        fill: url(#_未命名的渐变_38);
        fill-rule: evenodd;
      }

      .cls-2 {
        fill: #1a1a1a;
      }
    </style>
    <linearGradient id="_未命名的渐变_38" data-name="未命名的渐变 38" x1="86.89" y1="504.98" x2="937.82" y2="504.98" gradientUnits="userSpaceOnUse">
      <stop offset="0" stop-color="#745236"/>
      <stop offset="1" stop-color="#fbc481"/>
    </linearGradient>
  </defs>
  <!-- Generator: Adobe Illustrator 28.7.0, SVG Export Plug-In . SVG Version: 1.2.0 Build 136)  -->
  <g>
    <g id="_图层_1" data-name="图层_1">
      <g>
        <path class="cls-2" d="M512,997.9c-65.6,0-129.23-12.85-189.13-38.18-57.86-24.47-109.82-59.51-154.45-104.13-44.62-44.62-79.66-96.59-104.13-154.45-25.34-59.9-38.18-123.54-38.18-189.13s12.85-129.23,38.18-189.13c24.47-57.86,59.51-109.82,104.13-154.45,44.62-44.62,96.59-79.66,154.45-104.13,59.9-25.34,123.54-38.18,189.13-38.18s129.23,12.85,189.13,38.18c57.86,24.47,109.83,59.51,154.45,104.13,44.62,44.62,79.66,96.59,104.13,154.45,25.34,59.9,38.18,123.54,38.18,189.13s-12.85,129.23-38.18,189.13c-24.47,57.86-59.51,109.83-104.13,154.45-44.62,44.62-96.59,79.66-154.45,104.13-59.9,25.34-123.54,38.18-189.13,38.18Z"/>
        <path d="M512,26.6c65.53,0,129.1,12.83,188.94,38.14,57.8,24.45,109.71,59.45,154.29,104.03,44.58,44.58,79.58,96.49,104.03,154.29,25.31,59.84,38.14,123.41,38.14,188.94s-12.83,129.1-38.14,188.94c-24.45,57.8-59.45,109.71-104.03,154.29s-96.49,79.58-154.29,104.03c-59.84,25.31-123.41,38.14-188.94,38.14s-129.1-12.83-188.94-38.14c-57.8-24.45-109.71-59.45-154.29-104.03-44.58-44.58-79.58-96.49-104.03-154.29-25.31-59.84-38.14-123.41-38.14-188.94s12.83-129.1,38.14-188.94c24.45-57.8,59.45-109.71,104.03-154.29,44.58-44.58,96.49-79.58,154.29-104.03,59.84-25.31,123.41-38.14,188.94-38.14M512,25.6C243.37,25.6,25.6,243.37,25.6,512s217.77,486.4,486.4,486.4,486.4-217.77,486.4-486.4S780.63,25.6,512,25.6h0Z"/>
      </g>
      <path id="_形状_1_拷贝_2" data-name="形状_1_拷贝_2" class="cls-1" d="M510.63,450.2c35.68,0,64.6,28.92,64.6,64.6s-28.92,64.6-64.6,64.6-64.6-28.92-64.6-64.6,28.92-64.6,64.6-64.6ZM287.38,146.2s81.75-56.85,200.45-64.6c135.51-8.85,314.18,48.77,396.15,226.1s-24.15,360.12-148.2,424.65c-81.5,42.39-178.6,39.9-178.6,39.9,0,0,159.4-24.57,209-170.05,62.08-182.08-24.15-324.77-113.79-402.25-161.31-139.44-365.01-53.75-365.01-53.75ZM315.54,881.53s-90.11-42.37-156.17-141.3c-75.42-112.93-114.85-296.47-2.27-456.13,112.58-159.65,323.95-159.14,441.86-83.98,77.46,49.38,123.85,134.72,123.85,134.72,0,0-100.98-125.76-251.77-95.97-188.73,37.28-269.18,183.3-291.46,299.67-40.1,209.41,135.96,342.98,135.96,342.98ZM937.33,491.63s8.36,99.22-44.28,205.9c-60.09,121.78-199.33,247.7-393.88,230.03-194.55-17.67-299.8-200.98-293.66-340.67,4.03-91.77,54.75-174.62,54.75-174.62,0,0-58.42,150.32,42.77,266.02,126.65,144.81,293.34,141.47,405.25,102.58,201.41-69.98,229.06-289.24,229.06-289.24h0Z"/>
    </g>
  </g>
</svg>